<?xml version="1.0" encoding="utf-8"?>
<!-- Generator: Adobe Illustrator 21.0.0, SVG Export Plug-In . SVG Version: 6.00 Build 0)  -->
<svg version="1.1" id="Слой_1" xmlns="http://www.w3.org/2000/svg" xmlns:xlink="http://www.w3.org/1999/xlink" x="0px" y="0px"
	 viewBox="0 0 1280 960" style="enable-background:new 0 0 1280 960;" xml:space="preserve">
<style type="text/css">
	.st0{fill:#FF0000;}
	.st1{display:none;}
	.st2{display:inline;fill:none;}
	.st3{fill:#FFFFFF;}
	.st4{fill:#FFFFFF;stroke:#F22B2B;stroke-width:1.5;}
</style>
<g>
	<title>background</title>
	<rect id="canvas_background" x="-1" y="-1" class="st0" width="1282" height="962"/>
	<g id="canvasGrid" class="st1">
		<rect class="st2" width="1280" height="960"/>
	</g>
</g>
<g>
	<title>Layer 1</title>
	<path id="svg_1" class="st3" d="M428.7,371.7h189.7L677,191.5l58.6,180.2h189.7L771.8,483.1l58.6,180.2L677,551.9L523.5,663.3
		l58.6-180.2L428.7,371.7L428.7,371.7z"/>
	<path id="svg_2" class="st3" d="M-15.2,270.2h0.6l0.2-0.5l0.2,0.5h0.6l-0.5,0.3l0.2,0.5l-0.5-0.3l-0.5,0.3l0.2-0.5L-15.2,270.2
		L-15.2,270.2z"/>
	<path id="svg_3" class="st0" d="M535.4,406.7h108.2L677,303.9l33.4,102.8h108.2l-87.5,63.5l33.4,102.7L677,509.4l-87.5,63.5
		l33.4-102.7L535.4,406.7L535.4,406.7z"/>
	<path id="svg_9" class="st4" d="M642.2,476.9c0.2,0.2,0.4,0.2,0.6,0.5c0.2,1.2-2.3,4.2-2.7,1.5C641,478.4,641.6,477.9,642.2,476.9z
		"/>
</g>
<path class="st3" d="M677,419.3c8,2.9,15.4,7.4,21.6,13.2c6,5.6,11,12.5,13.5,20.5c1.6,5.1,1.3,10.7,0.2,15.9
	c-1.1,4.9-3.2,9.5-6.3,13.4c3.5,3.4,6.9,6.9,10.4,10.4c-0.5,1.8-1.2,3.6-2.6,4.8c-1.2,1-2.7,1.6-4.2,1.9c-3.4-3.6-6.8-7.2-10.3-10.7
	c-4.3,2.9-9.4,4.5-14.5,4.7c-6.5,0.3-12.9-1.8-18.2-5.6c-2.8-2-5.4-4.3-7.7-6.9c-0.4,0.4-0.8,0.8-1.3,1.1c0.1,0.9,0.2,1.7,0.3,2.6
	c-0.9,0.1-1.8,0.3-2.5,0.8c-2.3,1.5-3.9,3.7-5.5,5.9c-2,2.6-3.8,5.6-6.6,7.4c-1.7,1.1-4.2,0.6-5.3-1.2c-1.1-1.8-0.5-4,0.7-5.5
	c2.9-4.3,8-6.1,11.2-10c0.8-1.1,1.5-2.3,1.8-3.6c0.8,0.1,1.6,0.1,2.5,0.2c0.7-0.7,1.4-1.4,2.1-2.1c0.8,0,1.6,0.1,2.3-0.1
	c0.8-0.7,1.4-1.6,2.1-2.4c0.8,0.2,1.2,1,1.8,1.5c3.5,3.2,7.5,6.1,12.1,7.5c5.8,1.9,12.4,1.3,17.8-1.5c-11-11.5-21.9-22.9-32.9-34.4
	c-2.5,2.6-4.9,5.3-7.4,7.8c-3-3.1-6.1-6.3-9.2-9.4c5.8-5.8,11.6-11.6,17.4-17.5c5,1.4,10,2.8,15.1,4.2c-3.4,3.2-6.9,6.2-10.4,9.4
	c11.4,11.4,22.8,22.8,34.3,34.1c2.8-3.4,4.3-7.7,4.5-12.1c0.4-5.8-0.9-11.6-2.8-17.1c-2.7-7.2-7.8-13.1-13.4-18.2
	C684.3,425.2,680.7,422.2,677,419.3z"/>
</svg>
